<?xml version="1.0" encoding="UTF-8"?>
<svg id="Capa_1" xmlns="http://www.w3.org/2000/svg" xmlns:xlink="http://www.w3.org/1999/xlink" version="1.1" viewBox="0 0 64 64">
  <!-- Generator: Adobe Illustrator 29.5.1, SVG Export Plug-In . SVG Version: 2.1.0 Build 141)  -->
  <defs>
    <style>
      .st0 {
        stroke: url(#Degradado_sin_nombre_5);
      }

      .st0, .st1, .st2, .st3, .st4 {
        fill: none;
      }

      .st0, .st2, .st3 {
        isolation: isolate;
      }

      .st0, .st2, .st3, .st4 {
        stroke-linecap: round;
        stroke-linejoin: round;
      }

      .st0, .st4 {
        stroke-width: 2.5px;
      }

      .st5 {
        fill: #fff1c4;
      }

      .st6 {
        fill: #63b3ff;
      }

      .st7 {
        fill: #dbe7ff;
      }

      .st8 {
        fill: #fff;
      }

      .st9 {
        fill: url(#Degradado_sin_nombre);
      }

      .st1 {
        stroke: #63b3ff;
      }

      .st2 {
        stroke: url(#Degradado_sin_nombre_3);
      }

      .st2, .st3 {
        stroke-width: 2px;
      }

      .st3 {
        stroke: url(#Degradado_sin_nombre_4);
      }

      .st4 {
        stroke: url(#Degradado_sin_nombre_2);
      }

      .st10 {
        fill: #00b387;
      }
    </style>
    <linearGradient id="Degradado_sin_nombre" data-name="Degradado sin nombre" x1="11.95" y1="55.23" x2="53.95" y2="9.23" gradientTransform="translate(0 65.28) scale(1 -1)" gradientUnits="userSpaceOnUse">
      <stop offset="0" stop-color="#14213a"/>
      <stop offset="1" stop-color="#0a1120"/>
    </linearGradient>
    <linearGradient id="Degradado_sin_nombre_2" data-name="Degradado sin nombre 2" x1="16.5" y1="47.35" x2="48.5" y2="47.35" gradientTransform="translate(0 65.28) scale(1 -1)" gradientUnits="userSpaceOnUse">
      <stop offset="0" stop-color="#4dd0a8"/>
      <stop offset="1" stop-color="#63b3ff"/>
    </linearGradient>
    <linearGradient id="Degradado_sin_nombre_3" data-name="Degradado sin nombre 3" x1="15.5" y1="50.85" x2="47.5" y2="50.85" gradientTransform="translate(0 65.28) scale(1 -1)" gradientUnits="userSpaceOnUse">
      <stop offset="0" stop-color="#4dd0a8"/>
      <stop offset="1" stop-color="#63b3ff"/>
    </linearGradient>
    <linearGradient id="Degradado_sin_nombre_4" data-name="Degradado sin nombre 4" x1="15.5" y1="43.85" x2="47.5" y2="43.85" gradientTransform="translate(0 65.28) scale(1 -1)" gradientUnits="userSpaceOnUse">
      <stop offset="0" stop-color="#4dd0a8"/>
      <stop offset="1" stop-color="#63b3ff"/>
    </linearGradient>
    <linearGradient id="Degradado_sin_nombre_5" data-name="Degradado sin nombre 5" x1="16.5" y1="47.35" x2="48.5" y2="47.35" gradientTransform="translate(0 65.28) scale(1 -1)" gradientUnits="userSpaceOnUse">
      <stop offset="0" stop-color="#4dd0a8"/>
      <stop offset="1" stop-color="#63b3ff"/>
    </linearGradient>
  </defs>
  <rect class="st9" y="0" width="64" height="64" rx="16" ry="16"/>
  <path class="st1" d="M42.58,46.02"/>
  <g>
    <g>
      <path class="st1" d="M41.11,23.92c1.03.63,2.23,1,3.52,1,3.79,0,6.87-3.13,6.87-7s-3.08-7-6.87-7c-1.3,0-2.51.38-3.55,1.02"/>
      <path class="st1" d="M41.11,23.92"/>
      <g>
        <path class="st4" d="M14.5,17.92h15.5"/>
        <path class="st2" d="M29,17.92c4,0,6,0,8.8-2.8s4.8-4.2,7.7-4.2"/>
        <path class="st3" d="M29,17.92c4,0,6,0,8.8,2.8s4.8,4.2,7.7,4.2"/>
        <path class="st0" d="M30,17.92h14"/>
      </g>
      <g>
        <path class="st7" d="M14,9.92h5c.83,0,1.5.67,1.5,1.5h0c0,.83-.67,1.5-1.5,1.5h-5c-.83,0-1.5-.67-1.5-1.5h0c0-.83.67-1.5,1.5-1.5Z"/>
        <path class="st7" d="M14,16.42h7.5c.83,0,1.5.67,1.5,1.5h0c0,.83-.67,1.5-1.5,1.5h-7.5c-.83,0-1.5-.67-1.5-1.5h0c0-.83.67-1.5,1.5-1.5Z"/>
        <path class="st7" d="M14,22.92h4c.83,0,1.5.67,1.5,1.5h0c0,.83-.67,1.5-1.5,1.5h-4c-.83,0-1.5-.67-1.5-1.5h0c0-.83.67-1.5,1.5-1.5Z"/>
      </g>
      <circle class="st5" cx="44.5" cy="17.92" r="3.6"/>
      <circle class="st8" cx="44.5" cy="17.92" r="1.6"/>
    </g>
    <g>
      <path class="st6" d="M28.22,54.08c-1.17,0-2.34-.12-3.5-.35-1.16-.23-2.29-.6-3.4-1.1l.86-2.9c.99.48,1.95.84,2.9,1.09.94.24,1.93.36,2.97.36,1.24,0,2.26-.26,3.05-.79.79-.53,1.19-1.3,1.19-2.31,0-.74-.27-1.39-.81-1.97s-1.6-1.11-3.19-1.62l-2.03-.66c-1.59-.53-2.83-1.24-3.74-2.14s-1.36-2.13-1.36-3.69c0-1.91.66-3.44,1.97-4.59s3.18-1.72,5.62-1.72c1.15,0,2.24.1,3.28.31,1.03.21,2,.54,2.9,1l-.86,2.93c-.94-.46-1.83-.8-2.66-1.02-.83-.22-1.66-.33-2.48-.33-1.24,0-2.22.27-2.93.79-.71.53-1.07,1.27-1.07,2.21,0,.83.28,1.48.84,1.97.56.48,1.45.92,2.67,1.31l2.14.69c1.89.6,3.27,1.43,4.16,2.5s1.33,2.29,1.33,3.67c0,1.26-.32,2.37-.97,3.31-.64.94-1.55,1.68-2.72,2.22-1.17.54-2.55.81-4.14.81Z"/>
      <path class="st10" d="M39.45,41.41c-.5,0-.98-.13-1.42-.39-.44-.26-.8-.65-1.07-1.17-.27-.52-.41-1.16-.41-1.93,0-1.06.27-1.91.81-2.54.54-.63,1.28-.95,2.24-.95.34,0,.67.05.98.16.31.1.57.26.79.46v-3.89h1.47v10.13h-1.15l-.17-.74h-.04c-.26.28-.54.49-.85.64-.31.15-.7.23-1.18.23ZM39.81,40.3c.33,0,.63-.08.9-.23.27-.15.49-.36.67-.63v-3.22c-.19-.22-.41-.39-.65-.51-.24-.12-.51-.19-.79-.19-.32,0-.63.08-.92.24-.29.16-.53.41-.71.76-.18.35-.27.8-.27,1.36s.08,1.03.25,1.39c.17.36.38.62.66.78s.56.25.86.25Z"/>
    </g>
  </g>
</svg>