<svg xmlns="http://www.w3.org/2000/svg" viewBox="0 0 1200 630" role="img" aria-labelledby="title desc">
  <title id="title">SpecD public site</title>
  <desc id="desc">A dark editorial card for SpecD with the product title on the left and a workflow core visual on the right.</desc>
  <defs>
    <linearGradient id="page-bg" x1="180" y1="32" x2="1030" y2="620" gradientUnits="userSpaceOnUse">
      <stop offset="0" stop-color="#10182c" />
      <stop offset="1" stop-color="#07101d" />
    </linearGradient>
    <linearGradient id="panel-bg" x1="100" y1="80" x2="1040" y2="560" gradientUnits="userSpaceOnUse">
      <stop offset="0" stop-color="#10192f" />
      <stop offset="0.58" stop-color="#0b1326" />
      <stop offset="1" stop-color="#08101e" />
    </linearGradient>
    <linearGradient id="signal-line" x1="732" y1="314" x2="1060" y2="314" gradientUnits="userSpaceOnUse">
      <stop offset="0" stop-color="#4dd0a8" />
      <stop offset="0.52" stop-color="#63b3ff" />
      <stop offset="1" stop-color="#f4b860" />
    </linearGradient>
    <radialGradient id="core-glow" cx="0" cy="0" r="1" gradientTransform="translate(978 314) rotate(90) scale(156)">
      <stop offset="0" stop-color="#fff4d0" />
      <stop offset="0.18" stop-color="#f4b860" />
      <stop offset="0.42" stop-color="#63b3ff" stop-opacity=".96" />
      <stop offset="0.68" stop-color="#1cc8ff" stop-opacity=".32" />
      <stop offset="1" stop-color="#07101d" stop-opacity="0" />
    </radialGradient>
    <filter id="soft-blur" x="-20%" y="-20%" width="140%" height="140%">
      <feGaussianBlur stdDeviation="14" />
    </filter>
  </defs>

  <rect width="1200" height="630" rx="42" fill="url(#page-bg)" />

  <g opacity=".18">
    <path d="M0 156h1200M0 282h1200M0 408h1200M0 534h1200" stroke="#6d84ac" />
    <path d="M168 0v630M336 0v630M504 0v630M672 0v630M840 0v630M1008 0v630" stroke="#6d84ac" />
  </g>

  <rect x="56" y="54" width="1088" height="522" rx="34" fill="url(#panel-bg)" stroke="rgba(123,146,180,.26)" />
  <rect x="56" y="54" width="1088" height="52" rx="34" fill="rgba(255,255,255,.02)" stroke="rgba(123,146,180,.12)" />
  <circle cx="98" cy="80" r="8" fill="#ff6f91" />
  <circle cx="126" cy="80" r="8" fill="#f4b860" />
  <circle cx="154" cy="80" r="8" fill="#4dd0a8" />

  <g>
    <circle cx="978" cy="314" r="148" fill="url(#core-glow)" />
    <circle cx="978" cy="314" r="100" fill="none" stroke="#63b3ff" stroke-opacity=".55" stroke-width="3" />
    <circle cx="978" cy="314" r="66" fill="none" stroke="#4dd0a8" stroke-opacity=".55" stroke-width="2.5" />
    <circle cx="978" cy="314" r="36" fill="none" stroke="#63b3ff" stroke-opacity=".65" stroke-width="2" />
    <circle cx="978" cy="314" r="16" fill="#fff3d0" />
    <circle cx="978" cy="314" r="6.5" fill="#ffffff" />

    <path d="M734 314h148" stroke="url(#signal-line)" stroke-width="4" stroke-linecap="round" />
    <path d="M734 314c58 0 84-34 120-62 28-22 60-34 110-34" stroke="#63b3ff" stroke-opacity=".82" stroke-width="3" fill="none" stroke-linecap="round" />
    <path d="M734 314c58 0 84 34 120 62 28 22 60 34 110 34" stroke="#4dd0a8" stroke-opacity=".82" stroke-width="3" fill="none" stroke-linecap="round" />
    <path d="M764 248c58 0 100 28 154 98" stroke="#f4b860" stroke-opacity=".58" stroke-width="2.5" fill="none" stroke-linecap="round" />
    <path d="M764 380c58 0 100-28 154-98" stroke="#63b3ff" stroke-opacity=".42" stroke-width="2.5" fill="none" stroke-linecap="round" />

    <g fill="rgba(16,25,47,.92)" stroke="rgba(142,184,234,.26)">
      <rect x="696" y="268" width="62" height="92" rx="10" />
      <rect x="780" y="260" width="74" height="108" rx="10" />
      <rect x="876" y="252" width="82" height="124" rx="12" />
    </g>
    <g fill="#dbe7ff" opacity=".84">
      <rect x="712" y="290" width="28" height="8" rx="4" />
      <rect x="712" y="308" width="18" height="8" rx="4" />
      <rect x="712" y="326" width="34" height="8" rx="4" />

      <rect x="800" y="286" width="36" height="8" rx="4" />
      <rect x="800" y="306" width="22" height="8" rx="4" />
      <rect x="800" y="326" width="42" height="8" rx="4" />
      <rect x="800" y="346" width="28" height="8" rx="4" />

      <rect x="896" y="280" width="38" height="8" rx="4" />
      <rect x="896" y="300" width="24" height="8" rx="4" />
      <rect x="896" y="324" width="46" height="8" rx="4" />
      <rect x="896" y="346" width="50" height="8" rx="4" />
    </g>

    <g fill="#4dd0a8">
      <circle cx="752" cy="314" r="5" />
      <circle cx="824" cy="278" r="5.5" />
      <circle cx="822" cy="350" r="5.5" />
      <circle cx="904" cy="252" r="5" />
    </g>
    <g fill="#63b3ff">
      <circle cx="870" cy="282" r="5" />
      <circle cx="934" cy="220" r="6" />
      <circle cx="934" cy="408" r="6" />
    </g>
    <g fill="#f4b860">
      <circle cx="772" cy="248" r="4.5" />
      <circle cx="1048" cy="248" r="6" />
      <circle cx="1052" cy="376" r="5" />
    </g>
  </g>

  <ellipse cx="978" cy="314" rx="162" ry="62" fill="none" stroke="#63b3ff" stroke-opacity=".24" stroke-width="2" />
  <ellipse cx="978" cy="314" rx="104" ry="146" fill="none" stroke="#4dd0a8" stroke-opacity=".18" stroke-width="2" transform="rotate(-24 978 314)" />
  <ellipse cx="978" cy="314" rx="94" ry="142" fill="none" stroke="#63b3ff" stroke-opacity=".14" stroke-width="2" transform="rotate(38 978 314)" />

  <circle cx="1032" cy="126" r="42" fill="#63b3ff" fill-opacity=".12" filter="url(#soft-blur)" />
  <circle cx="1090" cy="478" r="50" fill="#4dd0a8" fill-opacity=".08" filter="url(#soft-blur)" />

  <g opacity=".82">
    <rect x="114" y="142" width="168" height="26" rx="13" fill="#10253a" stroke="rgba(99,179,255,.24)" />
    <text x="138" y="160" fill="#8eb8ea" font-family="IBM Plex Mono, SFMono-Regular, monospace" font-size="18" letter-spacing="4">SPEC-FIRST WORKFLOW</text>

    <text x="112" y="252" fill="#f5fbff" font-family="IBM Plex Mono, SFMono-Regular, monospace" font-size="100" font-weight="700" letter-spacing="-6">SpecD</text>
    <text x="116" y="292" fill="#8eb8ea" font-family="IBM Plex Mono, SFMono-Regular, monospace" font-size="24" letter-spacing="7">SPEC-DRIVEN DEVELOPMENT</text>

    <text x="112" y="374" fill="#f3f7ff" font-family="IBM Plex Sans, Segoe UI, sans-serif" font-size="54" font-weight="700">
      <tspan x="112" dy="0">Build against intent before</tspan>
      <tspan x="112" dy="64">code starts drifting.</tspan>
    </text>

    <text x="116" y="496" fill="#a8b6cf" font-family="IBM Plex Sans, Segoe UI, sans-serif" font-size="26">
      <tspan x="116" dy="0">Compiled context, code graph analysis,</tspan>
      <tspan x="116" dy="38">and spec-driven execution for coding agents and teams.</tspan>
    </text>
  </g>
</svg>
